<?xml version="1.0" encoding="UTF-8" standalone="no"?>
<svg
  xmlns:dc="http://purl.org/dc/elements/1.1/"
  xmlns:cc="http://creativecommons.org/ns#"
  xmlns:rdf="http://www.w3.org/1999/02/22-rdf-syntax-ns#"
  xmlns:svg="http://www.w3.org/2000/svg"
  xmlns="http://www.w3.org/2000/svg"
  viewBox="0 0 865.31732 646.71332"
  xml:space="preserve"
  id="svg2"
  version="1.1">
  <metadata id="metadata8">
    <rdf:RDF>
      <cc:Work rdf:about="">
        <dc:format>image/svg+xml</dc:format><dc:type rdf:resource="http://purl.org/dc/dcmitype/StillImage"/></cc:Work>
    </rdf:RDF>
  </metadata>
  <!-- <defs id="defs6">
    <clipPath id="clipPath18" clipPathUnits="userSpaceOnUse"><path id="path16" d="M 0,485.035 H 648.988 V 0 H 0 Z"/></clipPath>
    <clipPath id="clipPath26" clipPathUnits="userSpaceOnUse"><path id="path24" d="M -4.88281e-4,485.036 H 648.988 V 0 H -4.88281e-4 Z"/></clipPath>
    <clipPath id="clipPath40" clipPathUnits="userSpaceOnUse"><path id="path38" d="M -4.88281e-4,485.036 H 648.988 V 0 H -4.88281e-4 Z"/></clipPath>
    <clipPath id="clipPath44" clipPathUnits="userSpaceOnUse"><path id="path42" d="M 648.988,485.036 H -10e-4 V 0 h 648.989 z"/></clipPath>
    <radialGradient id="radialGradient52" spreadMethod="pad" gradientTransform="matrix(0,-285.63403,286.914,0,324.49365,242.51758)" gradientUnits="userSpaceOnUse" r="1" cy="0" cx="0" fy="0" fx="0"><stop id="stop46" offset="0" style="stop-opacity:1;stop-color:#ffd840"/><stop id="stop48" offset="0.64195307" style="stop-opacity:1;stop-color:#ffd840"/><stop id="stop50" offset="1" style="stop-opacity:1;stop-color:#f9a11b"/></radialGradient>
    <clipPath id="clipPath74" clipPathUnits="userSpaceOnUse"><path id="path72" d="M 0,485.035 H 648.988 V 0 H 0 Z"/></clipPath>
    <clipPath id="clipPath372" clipPathUnits="userSpaceOnUse"><path id="path370" d="M 0,485.035 H 648.988 V 0 H 0 Z"/></clipPath>
  </defs> -->
  <g transform="matrix(1.3333333,0,0,-1.3333333,0,646.71333)" id="g10">
    <!-- <g id="g12">
      <g clip-path="url(#clipPath18)" id="g14">
        <g id="g20"><g id="g22"/>
          <g id="g32">
            <g style="opacity:0.69999701" id="g30" clip-path="url(#clipPath26)"><path id="path28" style="fill:#ffff00;fill-opacity:1;fill-rule:nonzero;stroke:none" d="M 648.988,485.036 H -10e-4 V 0 h 648.989 z"/></g>
          </g>
        </g>
        <g id="g34"><g id="g36"/>
          <g id="g66">
            <g style="opacity:0.60000598" id="g64" clip-path="url(#clipPath40)">
              <g id="g62">
                <g id="g60" clip-path="url(#clipPath44)">
                  <g id="g58">
                    <g id="g56"><path id="path54" style="fill:url(#radialGradient52);stroke:none" d="M 648.988,485.036 H -10e-4 V 0 h 648.989 z"/></g>
                  </g>
                </g>
              </g>
            </g>
          </g>
        </g>
      </g>
    </g> -->
    <g id="g68">
      <g clip-path="url(#clipPath74)" id="g70">
        <g transform="translate(120.2134,-14.7412)" id="g76"><path
          id="path78"
          style="fill:#000000;fill-opacity:1;fill-rule:nonzero;stroke:none"
          d="m 0,0 c -0.02,0.858 -0.779,1.464 -1.62,1.464 -1.852,0 -2.145,-1.579 -2.145,-2.984 0,-1.305 0.567,-2.652 1.973,-2.652 1.147,0 1.733,0.662 1.89,1.734 h 3.218 c -0.293,-2.708 -2.4,-4.271 -5.091,-4.271 -3.041,0 -5.304,2.089 -5.304,5.189 0,3.219 2.048,5.521 5.304,5.521 2.516,0 4.758,-1.328 4.994,-4.001 z"/></g>
        <g transform="translate(128.8208,-10.8154)" id="g80"><path id="path82" style="fill:#000000;fill-opacity:1;fill-rule:nonzero;stroke:none" d="m 0,0 c -3.126,0 -5.303,-2.313 -5.303,-5.345 0,-3.029 2.177,-5.324 5.303,-5.324 3.127,0 5.326,2.295 5.326,5.324 C 5.326,-2.313 3.127,0 0,0"/></g>
        <g transform="translate(111.4771,-18.3193)" id="g84"><path id="path86" style="fill:#000000;fill-opacity:1;fill-rule:nonzero;stroke:none" d="m 0,0 c -0.86,0 -1.458,-0.636 -1.458,-1.468 0,-0.833 0.598,-1.462 1.458,-1.462 0.859,0 1.461,0.629 1.461,1.462 C 1.461,-0.636 0.859,0 0,0"/></g>
        <g transform="translate(134.3779,-11.4629)" id="g88"><path
          id="path90"
          style="fill:#000000;fill-opacity:1;fill-rule:nonzero;stroke:none"
          d="m 0,0 h 3.139 v -1.352 h 0.037 c 0.591,0.991 1.635,1.637 2.835,1.637 1.235,0 2.338,-0.398 2.87,-1.598 0.781,1.046 1.749,1.598 3.081,1.598 3.139,0 3.48,-2.377 3.48,-4.262 v -5.892 h -3.234 v 5.8 c 0,1.064 -0.512,1.69 -1.349,1.69 -1.388,0 -1.521,-1.062 -1.521,-2.661 V -9.869 H 6.105 v 5.609 c 0,1.159 -0.343,1.881 -1.216,1.881 -1.162,0 -1.654,-0.665 -1.654,-2.681 V -9.869 H 0 Z"/></g>
        <g transform="translate(68.6528,-21.2285)" id="g92"><path id="path94" style="fill:#000000;fill-opacity:1;fill-rule:nonzero;stroke:none" d="m 0,0 h -3.686 l -3.256,9.762 h 3.33 l 1.786,-6.454 h 0.038 l 1.807,6.454 h 3.257 z"/></g>
        <g transform="translate(73.6675,-17.1309)" id="g96"><path
          id="path98"
          style="fill:#000000;fill-opacity:1;fill-rule:nonzero;stroke:none"
          d="m 0,0 c 0.056,-1.335 0.831,-2.219 2.184,-2.219 0.767,0 1.52,0.361 1.818,1.073 H 6.995 C 6.414,-3.403 4.324,-4.383 2.142,-4.383 c -3.177,0 -5.341,1.922 -5.341,5.193 0,2.99 2.392,5.133 5.267,5.133 3.498,0 5.25,-2.631 5.1,-5.943 z"/></g>
        <g transform="translate(87.6758,-15.041)" id="g100"><path
          id="path102"
          style="fill:#000000;fill-opacity:1;fill-rule:nonzero;stroke:none"
          d="m 0,0 c -0.02,0.827 -0.752,1.412 -1.562,1.412 -1.788,0 -2.068,-1.528 -2.068,-2.881 0,-1.261 0.547,-2.558 1.903,-2.558 1.107,0 1.668,0.64 1.823,1.676 h 3.1 c -0.279,-2.614 -2.314,-4.122 -4.907,-4.122 -2.934,0 -5.113,2.014 -5.113,5.004 0,3.105 1.973,5.323 5.113,5.323 2.424,0 4.589,-1.279 4.815,-3.854 z"/></g>
        <g transform="translate(96.9478,-13.5371)" id="g104"><path
          id="path106"
          style="fill:#000000;fill-opacity:1;fill-rule:nonzero;stroke:none"
          d="m 0,0 h -1.971 v -4.439 c 0,-0.772 0.451,-0.941 1.145,-0.941 0.262,0 0.548,0.039 0.826,0.039 v -2.35 c -0.58,-0.018 -1.161,-0.096 -1.749,-0.096 -2.726,0 -3.422,0.79 -3.422,3.445 V 0 h -1.617 v 2.07 h 1.617 v 2.952 h 3.2 V 2.07 L 0,2.07 Z"/></g>
        <g transform="translate(101.3389,-11.1875)" id="g108"><path id="path110" style="fill:#000000;fill-opacity:1;fill-rule:nonzero;stroke:none" d="m 0,0 c -3.027,0 -5.135,-2.239 -5.135,-5.17 0,-2.935 2.108,-5.156 5.135,-5.156 3.027,0 5.153,2.221 5.153,5.156 C 5.153,-2.239 3.027,0 0,0"/></g>
        <g transform="translate(106.2773,-11.4668)" id="g112"><path
          id="path114"
          style="fill:#000000;fill-opacity:1;fill-rule:nonzero;stroke:none"
          d="m 0,0 h 3.107 v -1.711 h 0.035 c 0.47,1.236 1.558,1.899 2.933,1.899 0.243,0 0.507,-0.024 0.751,-0.074 V -2.801 C 6.414,-2.693 6.038,-2.62 5.603,-2.62 4.024,-2.62 3.197,-3.708 3.197,-4.927 V -9.762 H 0 Z"/></g>
        <g transform="translate(36.5967,-11.4668)" id="g116"><path
          id="path118"
          style="fill:#000000;fill-opacity:1;fill-rule:nonzero;stroke:none"
          d="m 0,0 h 3.106 v -1.711 h 0.037 c 0.468,1.236 1.561,1.899 2.935,1.899 0.244,0 0.509,-0.024 0.749,-0.074 V -2.801 C 6.415,-2.693 6.042,-2.62 5.604,-2.62 4.029,-2.62 3.198,-3.708 3.198,-4.927 V -9.762 H 0 Z"/></g>
        <g transform="translate(45.4766,-17.1309)" id="g120"><path
          id="path122"
          style="fill:#000000;fill-opacity:1;fill-rule:nonzero;stroke:none"
          d="m 0,0 c 0.055,-1.335 0.825,-2.219 2.181,-2.219 0.769,0 1.524,0.361 1.823,1.073 H 6.997 C 6.411,-3.403 4.326,-4.383 2.145,-4.383 c -3.181,0 -5.345,1.922 -5.345,5.193 0,2.99 2.39,5.133 5.27,5.133 3.498,0 5.245,-2.631 5.096,-5.943 z"/></g>
        <g transform="translate(55.5596,-17.1309)" id="g124"><path
          id="path126"
          style="fill:#000000;fill-opacity:1;fill-rule:nonzero;stroke:none"
          d="m 0,0 c 0.055,-1.335 0.826,-2.219 2.182,-2.219 0.769,0 1.522,0.361 1.823,1.073 h 2.991 c -0.582,-2.257 -2.67,-3.237 -4.851,-3.237 -3.179,0 -5.341,1.922 -5.341,5.193 0,2.99 2.384,5.133 5.266,5.133 3.497,0 5.247,-2.631 5.097,-5.943 z"/></g>
        <g transform="translate(36.0156,-10.0605)" id="g128"><path
          id="path130"
          style="fill:#000000;fill-opacity:1;fill-rule:nonzero;stroke:none"
          d="m 0,0 c 0.283,0 0.564,-0.018 0.864,-0.055 v 2.259 c -0.509,0.02 -1.035,0.055 -1.543,0.055 -2.725,0 -3.704,-0.865 -3.704,-3.665 h -1.541 v -2.071 h 1.541 v -7.691 h 3.195 v 7.691 h 1.919 v 2.071 h -1.919 v 0.431 C -1.188,-0.092 -0.735,0 0,0"/></g>
        <g transform="translate(26.939,-14.5703)" id="g132"><path id="path134" style="fill:#ffffff;fill-opacity:1;fill-rule:nonzero;stroke:none" d="m 0,0 c 0,-3.982 -3.228,-7.212 -7.211,-7.212 -3.983,0 -7.212,3.23 -7.212,7.212 0,3.981 3.229,7.21 7.212,7.21 C -3.228,7.21 0,3.981 0,0"/></g>
        <g transform="translate(22.23,-17.8486)" id="g136"><path
          id="path138"
          style="fill:#000000;fill-opacity:1;fill-rule:nonzero;stroke:none"
          d="m 0,0 0.019,-0.013 c 0,0 -0.007,0.005 -0.013,0.01 -0.001,0 -0.004,0 -0.006,0.003 m -3.204,1.693 c -0.35,-0.123 -0.816,0.196 -1.023,0.356 -0.177,0.203 -1.242,1.338 -1.365,1.48 -0.266,0.307 -0.063,0.942 0.594,1.161 0.186,0.063 0.471,0.068 0.644,-0.125 0.776,-0.928 1.586,-1.918 1.646,-2.109 0.1,-0.333 -0.084,-0.62 -0.496,-0.763 m 0.682,8.825 c -0.659,0 -1.294,-0.086 -1.9,-0.246 0.249,-0.021 0.412,-0.178 0.497,-0.492 0,0 1.356,-4.485 1.518,-4.989 0.159,-0.506 0.35,-1.059 0.35,-1.059 C -2.164,3.643 -2.262,3.529 -2.336,3.38 -2.476,3.089 -2.552,2.853 -2.585,2.617 c -0.21,0.36 -1.033,1.368 -1.589,2.04 0,0 -0.036,0.446 -0.155,0.873 -0.12,0.425 -0.886,3.309 -0.886,3.309 C -5.351,9.375 -5.294,9.841 -5,10.094 -7.829,9.093 -9.854,6.425 -9.854,3.286 c 0,-2.85 1.674,-5.315 4.108,-6.493 -0.25,0.366 -0.538,0.937 -0.673,1.743 -0.224,1.325 -0.268,2.183 -0.436,2.922 -0.223,0.988 -0.156,1.217 0.184,1.652 0.168,0.215 0.359,0.348 0.537,0.407 0.178,0.047 0.362,-0.059 0.43,-0.135 C -5.276,2.924 -4.458,2.044 -4.358,1.919 -4.16,1.687 -4.133,1.395 -4.28,1.047 -4.338,0.906 -4.498,0.843 -4.623,0.813 -4.906,0.747 -5.227,0.806 -5.337,0.9 c -0.23,0.193 -1.35,1.217 -1.35,1.166 0,-0.269 0.833,-0.928 1.229,-1.305 0.161,-0.157 0.558,-0.201 0.879,-0.126 0.238,0.056 0.4,0.174 0.471,0.343 0.11,0.259 0.135,0.501 0.076,0.717 0.26,-0.15 0.595,-0.278 0.891,-0.176 0.288,0.1 0.462,0.255 0.556,0.422 0.019,-0.192 0.05,-0.407 0.091,-0.663 0.099,-0.646 0.22,-1.007 0.293,-1.222 0.027,-0.08 0.054,-0.163 0.051,-0.189 -0.002,-0.005 -0.005,-0.009 -0.011,-0.014 -0.17,-0.239 -0.422,-0.628 -0.582,-1.111 -0.106,-0.321 -0.186,-0.758 -0.196,-1.169 -0.005,-0.144 0,-0.367 0.042,-0.367 0.044,10e-4 0.038,0.228 0.054,0.367 0.045,0.416 0.112,0.835 0.233,1.137 0.159,0.392 0.37,0.712 0.6,1.035 0.01,0.012 0.015,0.021 0.02,0.026 0.053,0.079 0.024,0.166 -0.034,0.341 -0.072,0.211 -0.188,0.562 -0.288,1.195 -0.143,0.933 -0.198,1.284 0.145,1.993 0.276,0.576 1.01,0.583 1.168,0.517 0.061,-0.033 0.065,-0.384 0.072,-0.697 0.008,-0.349 0.015,-0.782 0.073,-1.309 0.072,-0.665 0.344,-1.184 0.589,-1.486 0.199,-0.24 0.358,-0.347 0.397,-0.31 0.037,0.036 -0.136,0.167 -0.313,0.443 -0.196,0.304 -0.421,0.763 -0.488,1.373 -0.058,0.517 -0.065,0.948 -0.071,1.294 -0.012,0.526 -0.016,0.789 -0.187,0.86 -0.085,0.037 -0.264,0.057 -0.47,0.03 l 1.353,4.533 c 0.236,0.817 0.485,1.151 1.007,1.098 0.005,0 0.01,-0.004 0.017,-0.005 -1.041,0.558 -2.233,0.877 -3.502,0.877"/></g>
        <g transform="translate(23.603,-8.4375)" id="g140"><path
          id="path142"
          style="fill:#000000;fill-opacity:1;fill-rule:nonzero;stroke:none"
          d="m 0,0 c 0.174,-0.181 0.245,-0.433 0.171,-0.7 l -1.215,-5.404 c -0.074,-0.419 -0.197,-1.288 -0.086,-1.881 0.149,-0.809 0.468,-1.9 0.235,-3.106 -0.125,-0.64 -0.318,-1.336 -0.641,-1.878 2.889,0.969 4.97,3.667 4.97,6.844 C 3.434,-3.544 2.063,-1.279 0,0"/></g><path id="path144" style="fill:#000000;fill-opacity:1;fill-rule:nonzero;stroke:none" d="m 164.256,-11.693 h 2.498 v -9.587 h -2.498 z"/>
        <g transform="translate(168.3911,-14.3115)" id="g146"><path
          id="path148"
          style="fill:#000000;fill-opacity:1;fill-rule:nonzero;stroke:none"
          d="m 0,0 h 2.215 v -0.953 h 0.027 c 0.416,0.699 1.155,1.155 2.001,1.155 0.873,0 1.652,-0.282 2.028,-1.128 0.55,0.738 1.235,1.128 2.175,1.128 2.216,0 2.457,-1.679 2.457,-3.008 V -6.969 H 8.621 v 4.096 c 0,0.752 -0.363,1.194 -0.954,1.194 -0.98,0 -1.074,-0.751 -1.074,-1.879 V -6.969 H 4.31 v 3.961 c 0,0.82 -0.242,1.329 -0.859,1.329 -0.819,0 -1.169,-0.469 -1.169,-1.892 v -3.398 l -2.282,0 z"/></g>
        <g transform="translate(183.6812,-20.0713)" id="g150"><path
          id="path152"
          style="fill:#000000;fill-opacity:1;fill-rule:nonzero;stroke:none"
          d="M 0,0 C 1.088,0 1.451,0.617 1.396,2.055 1.075,1.853 0.483,1.813 -0.013,1.678 -0.524,1.557 -0.954,1.343 -0.954,0.792 -0.954,0.228 -0.51,0 0,0 m -2.954,3.611 c 0.04,0.913 0.47,1.505 1.087,1.868 0.618,0.348 1.424,0.483 2.216,0.483 1.652,0 3.25,-0.362 3.25,-2.337 V 0.577 c 0,-0.591 0,-1.236 0.269,-1.786 H 1.571 c -0.08,0.214 -0.107,0.43 -0.134,0.658 -0.591,-0.618 -1.463,-0.859 -2.296,-0.859 -1.329,0 -2.377,0.671 -2.377,2.107 0,2.271 2.47,2.095 4.055,2.417 0.389,0.081 0.605,0.216 0.605,0.646 0,0.523 -0.632,0.724 -1.102,0.724 -0.631,0 -1.033,-0.281 -1.141,-0.873 z"/></g>
        <g transform="translate(191.9907,-15.8555)" id="g154"><path
          id="path156"
          style="fill:#000000;fill-opacity:1;fill-rule:nonzero;stroke:none"
          d="m 0,0 c -1.007,0 -1.33,-0.886 -1.33,-1.745 0,-0.819 0.376,-1.639 1.316,-1.639 0.967,0 1.384,0.751 1.384,1.625 C 1.37,-0.872 1.02,0 0,0 m 3.532,-4.579 c 0,-1.142 -0.215,-3.29 -3.478,-3.29 -1.625,0 -3.156,0.362 -3.425,2.229 h 2.283 c 0.054,-0.308 0.174,-0.497 0.389,-0.604 0.202,-0.108 0.484,-0.148 0.833,-0.148 1.088,0 1.196,0.766 1.196,1.625 v 0.658 H 1.303 c -0.417,-0.644 -1.115,-1.02 -1.854,-1.02 -2.108,0 -3.061,1.503 -3.061,3.464 0,1.853 1.088,3.411 3.061,3.411 0.833,0 1.464,-0.362 1.867,-1.075 h 0.027 v 0.873 h 2.189 z"/></g>
        <g transform="translate(201.7637,-17.0771)" id="g158"><path
          id="path160"
          style="fill:#000000;fill-opacity:1;fill-rule:nonzero;stroke:none"
          d="M 0,0 C -0.041,0.779 -0.591,1.423 -1.357,1.423 -2.162,1.423 -2.7,0.846 -2.833,0 Z m -2.833,-1.275 c 0.04,-0.954 0.59,-1.585 1.557,-1.585 0.55,0 1.088,0.255 1.303,0.765 h 2.135 c -0.416,-1.612 -1.907,-2.309 -3.465,-2.309 -2.269,0 -3.813,1.369 -3.813,3.706 0,2.135 1.705,3.666 3.759,3.666 2.498,0 3.747,-1.881 3.639,-4.243 z"/></g>
        <g transform="translate(206.9575,-18.9844)" id="g162"><path
          id="path164"
          style="fill:#000000;fill-opacity:1;fill-rule:nonzero;stroke:none"
          d="m 0,0 c 0,-0.349 0.147,-0.604 0.376,-0.778 0.215,-0.162 0.523,-0.243 0.846,-0.243 0.443,0 1.074,0.188 1.074,0.74 0,0.537 -0.712,0.643 -1.115,0.737 -1.436,0.363 -3.236,0.403 -3.236,2.284 0,1.679 1.813,2.135 3.182,2.135 1.531,0 3.13,-0.443 3.21,-2.257 H 2.229 c 0,0.296 -0.107,0.485 -0.295,0.605 -0.188,0.121 -0.444,0.174 -0.726,0.174 -0.375,0 -0.98,-0.04 -0.98,-0.523 0,-0.658 1.531,-0.779 2.578,-1.007 1.41,-0.282 1.773,-1.303 1.773,-1.881 0,-1.866 -1.773,-2.483 -3.344,-2.483 -1.652,0 -3.343,0.551 -3.41,2.497 z"/></g>
        <g transform="translate(219.7363,-20.0713)" id="g166"><path
          id="path168"
          style="fill:#000000;fill-opacity:1;fill-rule:nonzero;stroke:none"
          d="M 0,0 C 1.088,0 1.451,0.617 1.396,2.055 1.075,1.853 0.483,1.813 -0.013,1.678 -0.524,1.557 -0.954,1.343 -0.954,0.792 -0.954,0.228 -0.51,0 0,0 m -2.954,3.611 c 0.04,0.913 0.47,1.505 1.087,1.868 0.618,0.348 1.424,0.483 2.216,0.483 1.652,0 3.25,-0.362 3.25,-2.337 V 0.577 c 0,-0.591 0,-1.236 0.269,-1.786 H 1.571 c -0.08,0.214 -0.107,0.43 -0.134,0.658 -0.591,-0.618 -1.463,-0.859 -2.296,-0.859 -1.329,0 -2.377,0.671 -2.377,2.107 0,2.271 2.47,2.095 4.055,2.417 0.389,0.081 0.605,0.216 0.605,0.646 0,0.523 -0.632,0.724 -1.102,0.724 -0.631,0 -1.033,-0.281 -1.141,-0.873 z"/></g>
        <g transform="translate(224.917,-14.3115)" id="g170"><path
          id="path172"
          style="fill:#000000;fill-opacity:1;fill-rule:nonzero;stroke:none"
          d="m 0,0 h 2.215 v -1.222 h 0.027 c 0.336,0.886 1.115,1.357 2.095,1.357 0.175,0 0.363,-0.014 0.538,-0.054 V -2 c -0.296,0.08 -0.564,0.134 -0.873,0.134 -1.128,0 -1.719,-0.78 -1.719,-1.652 v -3.451 l -2.283,0 z"/></g>
        <g transform="translate(235.0933,-17.0771)" id="g174"><path
          id="path176"
          style="fill:#000000;fill-opacity:1;fill-rule:nonzero;stroke:none"
          d="M 0,0 C -0.041,0.779 -0.591,1.423 -1.357,1.423 -2.162,1.423 -2.7,0.846 -2.833,0 Z m -2.833,-1.275 c 0.04,-0.954 0.59,-1.585 1.557,-1.585 0.55,0 1.088,0.255 1.303,0.765 h 2.135 c -0.416,-1.612 -1.907,-2.309 -3.465,-2.309 -2.269,0 -3.814,1.369 -3.814,3.706 0,2.135 1.706,3.666 3.76,3.666 2.498,0 3.747,-1.881 3.639,-4.243 z"/></g>
        <g transform="translate(244.9448,-17.7227)" id="g178"><path
          id="path180"
          style="fill:#000000;fill-opacity:1;fill-rule:nonzero;stroke:none"
          d="m 0,0 c 0,-1.222 0.349,-2.013 1.383,-2.013 1.02,0 1.37,1.06 1.37,2.013 0,0.887 -0.35,1.867 -1.357,1.867 C 0.778,1.867 0,1.438 0,0 m -2.202,3.411 h 2.175 V 2.605 H 0 c 0.443,0.659 1.114,1.008 1.92,1.008 2.189,0 3.115,-1.881 3.115,-3.841 0,-1.812 -0.966,-3.531 -2.94,-3.531 -0.86,0 -1.517,0.321 -1.988,0.953 H 0.081 v -3.088 h -2.283 z"/></g>
        <g transform="translate(251.2798,-14.3115)" id="g182"><path
          id="path184"
          style="fill:#000000;fill-opacity:1;fill-rule:nonzero;stroke:none"
          d="m 0,0 h 2.215 v -1.222 h 0.027 c 0.336,0.886 1.115,1.357 2.095,1.357 0.175,0 0.363,-0.014 0.538,-0.054 V -2 c -0.296,0.08 -0.564,0.134 -0.873,0.134 -1.128,0 -1.719,-0.78 -1.719,-1.652 v -3.451 l -2.283,0 z"/></g>
        <g transform="translate(260.0054,-19.7354)" id="g186"><path
          id="path188"
          style="fill:#000000;fill-opacity:1;fill-rule:nonzero;stroke:none"
          d="M 0,0 C 1.061,0 1.397,1.047 1.397,1.933 1.397,2.819 1.061,3.88 0,3.88 -1.061,3.88 -1.383,2.819 -1.383,1.933 -1.383,1.047 -1.061,0 0,0 m 0,5.626 c 2.162,0 3.68,-1.599 3.68,-3.693 0,-2.095 -1.518,-3.679 -3.68,-3.679 -2.162,0 -3.666,1.584 -3.666,3.679 0,2.094 1.504,3.693 3.666,3.693"/></g>
        <g transform="translate(267.0796,-17.7227)" id="g190"><path
          id="path192"
          style="fill:#000000;fill-opacity:1;fill-rule:nonzero;stroke:none"
          d="m 0,0 c 0,-1.222 0.349,-2.013 1.383,-2.013 1.02,0 1.37,1.06 1.37,2.013 0,0.887 -0.35,1.867 -1.357,1.867 C 0.778,1.867 0,1.438 0,0 m -2.202,3.411 h 2.175 V 2.605 H 0 c 0.443,0.659 1.114,1.008 1.92,1.008 2.189,0 3.115,-1.881 3.115,-3.841 0,-1.812 -0.966,-3.531 -2.94,-3.531 -0.86,0 -1.518,0.321 -1.988,0.953 H 0.08 v -3.088 h -2.282 z"/></g>
        <g transform="translate(278.1143,-17.0771)" id="g194"><path
          id="path196"
          style="fill:#000000;fill-opacity:1;fill-rule:nonzero;stroke:none"
          d="M 0,0 C -0.041,0.779 -0.591,1.423 -1.356,1.423 -2.162,1.423 -2.7,0.846 -2.833,0 Z m -2.833,-1.275 c 0.04,-0.954 0.59,-1.585 1.557,-1.585 0.55,0 1.088,0.255 1.302,0.765 h 2.136 c -0.416,-1.612 -1.907,-2.309 -3.465,-2.309 -2.269,0 -3.814,1.369 -3.814,3.706 0,2.135 1.706,3.666 3.761,3.666 2.497,0 3.746,-1.881 3.638,-4.243 z"/></g>
        <g transform="translate(281.6157,-14.3115)" id="g198"><path
          id="path200"
          style="fill:#000000;fill-opacity:1;fill-rule:nonzero;stroke:none"
          d="m 0,0 h 2.216 v -1.222 h 0.026 c 0.336,0.886 1.115,1.357 2.095,1.357 0.175,0 0.363,-0.014 0.538,-0.054 V -2 c -0.296,0.08 -0.564,0.134 -0.873,0.134 -1.128,0 -1.719,-0.78 -1.719,-1.652 v -3.451 l -2.283,0 z"/></g>
        <g transform="translate(291.457,-15.7881)" id="g202"><path
          id="path204"
          style="fill:#000000;fill-opacity:1;fill-rule:nonzero;stroke:none"
          d="m 0,0 h -1.41 v -3.17 c 0,-0.55 0.322,-0.671 0.819,-0.671 0.188,0 0.389,0.028 0.591,0.028 v -1.679 c -0.417,-0.014 -0.833,-0.068 -1.249,-0.068 -1.947,0 -2.444,0.564 -2.444,2.458 V 0 h -1.155 v 1.477 h 1.155 V 3.585 H -1.41 V 1.477 H 0 Z"/></g>
        <g transform="translate(296.2754,-21.8975)" id="g206"><path
          id="path208"
          style="fill:#000000;fill-opacity:1;fill-rule:nonzero;stroke:none"
          d="m 0,0 c -0.55,-1.531 -1.369,-1.719 -2.914,-1.719 h -1.074 v 1.853 h 0.792 c 0.524,0 0.914,0.296 0.914,0.779 0,0.376 -0.444,1.449 -0.578,1.825 l -1.799,4.848 h 2.417 l 1.316,-4.538 h 0.027 l 1.316,4.538 h 2.336 z"/></g>
        <g transform="translate(307.2422,-19.7354)" id="g210"><path
          id="path212"
          style="fill:#000000;fill-opacity:1;fill-rule:nonzero;stroke:none"
          d="M 0,0 C 1.061,0 1.397,1.047 1.397,1.933 1.397,2.819 1.061,3.88 0,3.88 -1.061,3.88 -1.383,2.819 -1.383,1.933 -1.383,1.047 -1.061,0 0,0 m 0,5.626 c 2.162,0 3.679,-1.599 3.679,-3.693 0,-2.095 -1.517,-3.679 -3.679,-3.679 -2.162,0 -3.666,1.584 -3.666,3.679 0,2.094 1.504,3.693 3.666,3.693"/></g>
        <g transform="translate(312.6108,-15.7881)" id="g214"><path
          id="path216"
          style="fill:#000000;fill-opacity:1;fill-rule:nonzero;stroke:none"
          d="M 0,0 H -1.101 V 1.477 H 0 c 0,2.001 0.698,2.618 2.645,2.618 0.363,0 0.739,-0.027 1.101,-0.04 V 2.443 C 3.531,2.471 3.33,2.484 3.128,2.484 2.605,2.484 2.283,2.417 2.283,1.786 V 1.477 H 3.652 V 0 H 2.283 V -5.492 H 0 Z"/></g>
        <g transform="translate(325.5117,-15.7881)" id="g218"><path
          id="path220"
          style="fill:#000000;fill-opacity:1;fill-rule:nonzero;stroke:none"
          d="m 0,0 h -1.41 v -3.17 c 0,-0.55 0.323,-0.671 0.819,-0.671 0.188,0 0.39,0.028 0.591,0.028 v -1.679 c -0.416,-0.014 -0.833,-0.068 -1.249,-0.068 -1.947,0 -2.443,0.564 -2.443,2.458 V 0 h -1.155 v 1.477 h 1.155 V 3.585 H -1.41 V 1.477 H 0 Z"/></g>
        <g transform="translate(326.5313,-11.6934)" id="g222"><path
          id="path224"
          style="fill:#000000;fill-opacity:1;fill-rule:nonzero;stroke:none"
          d="m 0,0 h 2.282 v -3.571 h 0.027 c 0.349,0.712 1.289,1.155 2.122,1.155 2.323,0 2.51,-1.692 2.51,-2.7 V -9.587 H 4.658 v 3.37 c 0,0.953 0.109,1.92 -1.14,1.92 -0.86,0 -1.236,-0.724 -1.236,-1.49 v -3.8 H 0 Z"/></g>
        <g transform="translate(339.7686,-17.0771)" id="g226"><path
          id="path228"
          style="fill:#000000;fill-opacity:1;fill-rule:nonzero;stroke:none"
          d="M 0,0 C -0.04,0.779 -0.592,1.423 -1.357,1.423 -2.163,1.423 -2.7,0.846 -2.834,0 Z m -2.834,-1.275 c 0.04,-0.954 0.591,-1.585 1.558,-1.585 0.55,0 1.088,0.255 1.302,0.765 h 2.135 c -0.416,-1.612 -1.906,-2.309 -3.465,-2.309 -2.269,0 -3.812,1.369 -3.812,3.706 0,2.135 1.705,3.666 3.759,3.666 2.498,0 3.747,-1.881 3.638,-4.243 z"/></g>
        <g transform="translate(349.3652,-17.7227)" id="g230"><path
          id="path232"
          style="fill:#000000;fill-opacity:1;fill-rule:nonzero;stroke:none"
          d="m 0,0 c 0,-0.953 0.349,-2.013 1.396,-2.013 1.114,0 1.356,1.06 1.356,1.947 0,1.006 -0.363,1.933 -1.356,1.933 C 0.349,1.867 0,0.887 0,0 M 4.953,-3.558 H 2.779 v 0.806 H 2.752 C 2.309,-3.41 1.637,-3.759 0.831,-3.759 c -2.188,0 -3.114,1.88 -3.114,3.84 0,1.814 0.967,3.532 2.939,3.532 0.86,0 1.519,-0.322 1.989,-0.954 h 0.027 v 3.37 h 2.281 z"/></g>
        <g transform="translate(360.6543,-17.0771)" id="g234"><path
          id="path236"
          style="fill:#000000;fill-opacity:1;fill-rule:nonzero;stroke:none"
          d="M 0,0 C -0.04,0.779 -0.592,1.423 -1.357,1.423 -2.162,1.423 -2.699,0.846 -2.832,0 Z m -2.832,-1.275 c 0.039,-0.954 0.589,-1.585 1.557,-1.585 0.55,0 1.087,0.255 1.302,0.765 h 2.135 c -0.416,-1.612 -1.907,-2.309 -3.465,-2.309 -2.268,0 -3.812,1.369 -3.812,3.706 0,2.135 1.705,3.666 3.758,3.666 2.498,0 3.748,-1.881 3.64,-4.243 z"/></g>
        <g transform="translate(365.8486,-18.9844)" id="g238"><path
          id="path240"
          style="fill:#000000;fill-opacity:1;fill-rule:nonzero;stroke:none"
          d="m 0,0 c 0,-0.349 0.147,-0.604 0.376,-0.778 0.215,-0.162 0.523,-0.243 0.846,-0.243 0.443,0 1.074,0.188 1.074,0.74 0,0.537 -0.713,0.643 -1.114,0.737 -1.438,0.363 -3.238,0.403 -3.238,2.284 0,1.679 1.814,2.135 3.184,2.135 1.53,0 3.129,-0.443 3.209,-2.257 H 2.229 c 0,0.296 -0.107,0.485 -0.294,0.605 -0.19,0.121 -0.446,0.174 -0.727,0.174 -0.375,0 -0.979,-0.04 -0.979,-0.523 0,-0.658 1.53,-0.779 2.578,-1.007 1.409,-0.282 1.772,-1.303 1.772,-1.881 0,-1.866 -1.772,-2.483 -3.344,-2.483 -1.652,0 -3.343,0.551 -3.41,2.497 z"/></g><path id="path242" style="fill:#000000;fill-opacity:1;fill-rule:nonzero;stroke:none" d="m 371.62,-14.312 h 2.284 v -6.969 h -2.284 z m 2.284,0.874 h -2.284 v 1.745 h 2.284 z"/>
        <g transform="translate(378.7217,-15.8555)" id="g244"><path
          id="path246"
          style="fill:#000000;fill-opacity:1;fill-rule:nonzero;stroke:none"
          d="m 0,0 c -1.007,0 -1.329,-0.886 -1.329,-1.745 0,-0.819 0.375,-1.639 1.315,-1.639 0.968,0 1.384,0.751 1.384,1.625 C 1.37,-0.872 1.021,0 0,0 m 3.532,-4.579 c 0,-1.142 -0.215,-3.29 -3.478,-3.29 -1.625,0 -3.155,0.362 -3.424,2.229 h 2.283 c 0.053,-0.308 0.174,-0.497 0.389,-0.604 0.202,-0.108 0.484,-0.148 0.833,-0.148 1.088,0 1.195,0.766 1.195,1.625 v 0.658 H 1.304 c -0.417,-0.644 -1.116,-1.02 -1.854,-1.02 -2.109,0 -3.062,1.503 -3.062,3.464 0,1.853 1.088,3.411 3.062,3.411 0.833,0 1.463,-0.362 1.867,-1.075 h 0.026 v 0.873 h 2.189 z"/></g>
        <g transform="translate(383.7148,-14.3115)" id="g248"><path
          id="path250"
          style="fill:#000000;fill-opacity:1;fill-rule:nonzero;stroke:none"
          d="m 0,0 h 2.215 v -0.953 h 0.027 c 0.417,0.712 1.357,1.155 2.19,1.155 2.322,0 2.511,-1.692 2.511,-2.7 V -6.969 H 4.659 v 3.37 c 0,0.953 0.108,1.92 -1.14,1.92 -0.86,0 -1.238,-0.724 -1.238,-1.49 v -3.8 H 0 Z"/></g>
        <g transform="translate(396.9521,-17.0771)" id="g252"><path
          id="path254"
          style="fill:#000000;fill-opacity:1;fill-rule:nonzero;stroke:none"
          d="M 0,0 C -0.04,0.779 -0.591,1.423 -1.356,1.423 -2.162,1.423 -2.7,0.846 -2.834,0 Z m -2.834,-1.275 c 0.04,-0.954 0.591,-1.585 1.558,-1.585 0.55,0 1.088,0.255 1.302,0.765 h 2.135 c -0.416,-1.612 -1.906,-2.309 -3.464,-2.309 -2.27,0 -3.813,1.369 -3.813,3.706 0,2.135 1.705,3.666 3.76,3.666 2.498,0 3.746,-1.881 3.638,-4.243 z"/></g>
        <g transform="translate(400.4531,-14.3115)" id="g256"><path
          id="path258"
          style="fill:#000000;fill-opacity:1;fill-rule:nonzero;stroke:none"
          d="m 0,0 h 2.217 v -1.222 h 0.026 c 0.335,0.886 1.114,1.357 2.095,1.357 0.174,0 0.363,-0.014 0.537,-0.054 V -2 c -0.296,0.08 -0.564,0.134 -0.872,0.134 -1.13,0 -1.719,-0.78 -1.719,-1.652 v -3.451 l -2.284,0 z"/></g><path id="path260" style="fill:#000000;fill-opacity:1;fill-rule:nonzero;stroke:none" d="m 404.963,-18.782 h 2.498 v -2.498 h -2.498 z"/>
        <g transform="translate(422.7256,-15.1172)" id="g262"><path
          id="path264"
          style="fill:#000000;fill-opacity:1;fill-rule:nonzero;stroke:none"
          d="m 0,0 c -0.136,0.968 -0.886,1.478 -1.935,1.478 -1.609,0 -2.228,-1.424 -2.228,-2.847 0,-1.424 0.619,-2.847 2.228,-2.847 1.169,0 1.841,0.671 1.935,1.773 h 2.498 c -0.136,-2.471 -1.948,-3.921 -4.38,-3.921 -2.899,0 -4.779,2.216 -4.779,4.995 0,2.78 1.88,4.995 4.779,4.995 2.07,0 4.311,-1.315 4.38,-3.626 z"/></g>
        <g transform="translate(426.4551,-11.6934)" id="g266"><path
          id="path268"
          style="fill:#000000;fill-opacity:1;fill-rule:nonzero;stroke:none"
          d="M 0,0 H 2.283 V -3.571 H 2.31 c 0.348,0.712 1.288,1.155 2.12,1.155 2.324,0 2.511,-1.692 2.511,-2.7 V -9.587 H 4.66 v 3.37 c 0,0.953 0.108,1.92 -1.142,1.92 -0.86,0 -1.235,-0.724 -1.235,-1.49 v -3.8 H 0 Z"/></g>
        <g transform="translate(439.6914,-17.0771)" id="g270"><path
          id="path272"
          style="fill:#000000;fill-opacity:1;fill-rule:nonzero;stroke:none"
          d="M 0,0 C -0.039,0.779 -0.591,1.423 -1.356,1.423 -2.162,1.423 -2.698,0.846 -2.834,0 Z m -2.834,-1.275 c 0.04,-0.954 0.592,-1.585 1.559,-1.585 0.55,0 1.086,0.255 1.302,0.765 h 2.135 c -0.416,-1.612 -1.906,-2.309 -3.465,-2.309 -2.267,0 -3.812,1.369 -3.812,3.706 0,2.135 1.705,3.666 3.759,3.666 2.498,0 3.745,-1.881 3.638,-4.243 z"/></g>
        <g transform="translate(447.6504,-16.8623)" id="g274"><path
          id="path276"
          style="fill:#000000;fill-opacity:1;fill-rule:nonzero;stroke:none"
          d="m 0,0 c -0.014,0.591 -0.535,1.007 -1.113,1.007 -1.276,0 -1.479,-1.088 -1.479,-2.055 0,-0.899 0.391,-1.825 1.358,-1.825 0.793,0 1.194,0.456 1.301,1.194 h 2.216 c -0.2,-1.866 -1.651,-2.94 -3.504,-2.94 -2.093,0 -3.652,1.436 -3.652,3.571 0,2.216 1.408,3.801 3.652,3.801 C 0.512,2.753 2.057,1.84 2.217,0 Z"/></g>
        <g transform="translate(451.0732,-11.6934)" id="g278"><path id="path280" style="fill:#000000;fill-opacity:1;fill-rule:nonzero;stroke:none" d="m 0,0 h 2.283 v -4.94 l 2.081,2.322 H 7.009 L 4.458,-5.25 7.333,-9.587 H 4.578 L 2.872,-6.78 2.283,-7.358 V -9.587 H 0 Z"/></g><path id="path282" style="fill:#000000;fill-opacity:1;fill-rule:nonzero;stroke:none" d="m 463.342,-11.693 h 2.281 v -9.587 h -2.281 z"/><path id="path284" style="fill:#000000;fill-opacity:1;fill-rule:nonzero;stroke:none" d="m 467.316,-14.312 h 2.281 v -6.969 h -2.281 z m 2.282,0.874 h -2.281 v 1.745 h 2.281 z"/>
        <g transform="translate(475.7471,-16.8623)" id="g286"><path
          id="path288"
          style="fill:#000000;fill-opacity:1;fill-rule:nonzero;stroke:none"
          d="m 0,0 c -0.013,0.591 -0.538,1.007 -1.114,1.007 -1.277,0 -1.477,-1.088 -1.477,-2.055 0,-0.899 0.388,-1.825 1.355,-1.825 0.792,0 1.196,0.456 1.303,1.194 h 2.217 c -0.203,-1.866 -1.652,-2.94 -3.508,-2.94 -2.093,0 -3.651,1.436 -3.651,3.571 0,2.216 1.411,3.801 3.651,3.801 C 0.511,2.753 2.054,1.84 2.215,0 Z"/></g>
        <g transform="translate(483.9492,-17.0771)" id="g290"><path
          id="path292"
          style="fill:#000000;fill-opacity:1;fill-rule:nonzero;stroke:none"
          d="M 0,0 C -0.041,0.779 -0.592,1.423 -1.357,1.423 -2.163,1.423 -2.699,0.846 -2.835,0 Z m -2.835,-1.275 c 0.04,-0.954 0.591,-1.585 1.558,-1.585 0.551,0 1.088,0.255 1.303,0.765 H 2.16 c -0.414,-1.612 -1.906,-2.309 -3.464,-2.309 -2.268,0 -3.813,1.369 -3.813,3.706 0,2.135 1.706,3.666 3.76,3.666 2.498,0 3.746,-1.881 3.638,-4.243 z"/></g>
        <g transform="translate(487.3691,-14.3115)" id="g294"><path
          id="path296"
          style="fill:#000000;fill-opacity:1;fill-rule:nonzero;stroke:none"
          d="m 0,0 h 2.217 v -0.953 h 0.027 c 0.414,0.712 1.356,1.155 2.188,1.155 2.324,0 2.511,-1.692 2.511,-2.7 V -6.969 H 4.66 v 3.37 c 0,0.953 0.108,1.92 -1.142,1.92 -0.86,0 -1.235,-0.724 -1.235,-1.49 v -3.8 H 0 Z"/></g>
        <g transform="translate(497.5977,-18.9844)" id="g298"><path
          id="path300"
          style="fill:#000000;fill-opacity:1;fill-rule:nonzero;stroke:none"
          d="M 0,0 C 0,-0.349 0.148,-0.604 0.377,-0.778 0.592,-0.94 0.9,-1.021 1.223,-1.021 c 0.443,0 1.074,0.188 1.074,0.74 0,0.537 -0.711,0.643 -1.113,0.737 -1.438,0.363 -3.237,0.403 -3.237,2.284 0,1.679 1.813,2.135 3.182,2.135 1.529,0 3.129,-0.443 3.209,-2.257 H 2.23 C 2.23,2.914 2.123,3.103 1.934,3.223 1.746,3.344 1.492,3.397 1.211,3.397 0.834,3.397 0.229,3.357 0.229,2.874 0.229,2.216 1.76,2.095 2.807,1.867 4.217,1.585 4.58,0.564 4.58,-0.014 c 0,-1.866 -1.773,-2.483 -3.344,-2.483 -1.65,0 -3.343,0.551 -3.41,2.497 z"/></g>
        <g transform="translate(508.0703,-17.0771)" id="g302"><path
          id="path304"
          style="fill:#000000;fill-opacity:1;fill-rule:nonzero;stroke:none"
          d="M 0,0 C -0.041,0.779 -0.59,1.423 -1.355,1.423 -2.162,1.423 -2.699,0.846 -2.834,0 Z m -2.834,-1.275 c 0.041,-0.954 0.592,-1.585 1.559,-1.585 0.548,0 1.087,0.255 1.302,0.765 h 2.135 c -0.416,-1.612 -1.908,-2.309 -3.465,-2.309 -2.269,0 -3.814,1.369 -3.814,3.706 0,2.135 1.705,3.666 3.762,3.666 2.498,0 3.746,-1.881 3.638,-4.243 z"/></g>
        <g transform="translate(516.2168,-15.7881)" id="g306"><path
          id="path308"
          style="fill:#000000;fill-opacity:1;fill-rule:nonzero;stroke:none"
          d="M 0,0 H -1.102 V 1.477 H 0 c 0,2.001 0.697,2.618 2.645,2.618 0.363,0 0.738,-0.027 1.103,-0.04 V 2.443 C 3.531,2.471 3.33,2.484 3.129,2.484 2.604,2.484 2.283,2.417 2.283,1.786 V 1.477 H 3.652 V 0 H 2.283 V -5.492 H 0 Z"/></g>
        <g transform="translate(524.0176,-19.7354)" id="g310"><path
          id="path312"
          style="fill:#000000;fill-opacity:1;fill-rule:nonzero;stroke:none"
          d="M 0,0 C 1.061,0 1.396,1.047 1.396,1.933 1.396,2.819 1.061,3.88 0,3.88 -1.063,3.88 -1.383,2.819 -1.383,1.933 -1.383,1.047 -1.063,0 0,0 m 0,5.626 c 2.162,0 3.68,-1.599 3.68,-3.693 0,-2.095 -1.518,-3.679 -3.68,-3.679 -2.162,0 -3.666,1.584 -3.666,3.679 0,2.094 1.504,3.693 3.666,3.693"/></g>
        <g transform="translate(528.9688,-14.3115)" id="g314"><path
          id="path316"
          style="fill:#000000;fill-opacity:1;fill-rule:nonzero;stroke:none"
          d="m 0,0 h 2.215 v -1.222 h 0.027 c 0.338,0.886 1.115,1.357 2.096,1.357 0.174,0 0.361,-0.014 0.537,-0.054 V -2 c -0.295,0.08 -0.564,0.134 -0.873,0.134 -1.129,0 -1.719,-0.78 -1.719,-1.652 v -3.451 l -2.283,0 z"/></g>
        <g transform="translate(541.0371,-17.7227)" id="g318"><path
          id="path320"
          style="fill:#000000;fill-opacity:1;fill-rule:nonzero;stroke:none"
          d="m 0,0 c 0,-1.222 0.35,-2.013 1.383,-2.013 1.019,0 1.371,1.06 1.371,2.013 0,0.887 -0.352,1.867 -1.358,1.867 C 0.779,1.867 0,1.438 0,0 m -2.203,3.411 h 2.178 V 2.605 H 0 c 0.443,0.659 1.115,1.008 1.92,1.008 2.187,0 3.117,-1.881 3.117,-3.841 0,-1.812 -0.969,-3.531 -2.943,-3.531 -0.86,0 -1.518,0.321 -1.987,0.953 H 0.082 v -3.088 h -2.285 z"/></g>
        <g transform="translate(552.0723,-17.0771)" id="g322"><path
          id="path324"
          style="fill:#000000;fill-opacity:1;fill-rule:nonzero;stroke:none"
          d="M 0,0 C -0.041,0.779 -0.59,1.423 -1.355,1.423 -2.16,1.423 -2.699,0.846 -2.832,0 Z m -2.832,-1.275 c 0.039,-0.954 0.59,-1.585 1.557,-1.585 0.55,0 1.087,0.255 1.302,0.765 h 2.135 c -0.416,-1.612 -1.908,-2.309 -3.463,-2.309 -2.271,0 -3.814,1.369 -3.814,3.706 0,2.135 1.705,3.666 3.76,3.666 2.498,0 3.746,-1.881 3.638,-4.243 z"/></g>
        <g transform="translate(555.5742,-14.3115)" id="g326"><path
          id="path328"
          style="fill:#000000;fill-opacity:1;fill-rule:nonzero;stroke:none"
          d="m 0,0 h 2.215 v -1.222 h 0.027 c 0.338,0.886 1.115,1.357 2.096,1.357 0.174,0 0.361,-0.014 0.537,-0.054 V -2 c -0.295,0.08 -0.564,0.134 -0.873,0.134 -1.129,0 -1.719,-0.78 -1.719,-1.652 v -3.451 l -2.283,0 z"/></g>
        <g transform="translate(561.2129,-14.3115)" id="g330"><path
          id="path332"
          style="fill:#000000;fill-opacity:1;fill-rule:nonzero;stroke:none"
          d="m 0,0 h 2.215 v -0.953 h 0.027 c 0.416,0.699 1.154,1.155 2,1.155 0.873,0 1.653,-0.282 2.028,-1.128 0.55,0.738 1.236,1.128 2.175,1.128 2.217,0 2.459,-1.679 2.459,-3.008 V -6.969 H 8.619 v 4.096 c 0,0.752 -0.361,1.194 -0.953,1.194 -0.978,0 -1.072,-0.751 -1.072,-1.879 V -6.969 H 4.311 v 3.961 c 0,0.82 -0.243,1.329 -0.862,1.329 -0.818,0 -1.166,-0.469 -1.166,-1.892 v -3.398 l -2.283,0 z"/></g><path id="path334" style="fill:#000000;fill-opacity:1;fill-rule:nonzero;stroke:none" d="m 573.723,-14.312 h 2.283 v -6.969 h -2.283 z m 2.283,0.874 h -2.283 v 1.745 h 2.283 z"/>
        <g transform="translate(581.8184,-15.7881)" id="g336"><path
          id="path338"
          style="fill:#000000;fill-opacity:1;fill-rule:nonzero;stroke:none"
          d="m 0,0 h -1.41 v -3.17 c 0,-0.55 0.324,-0.671 0.818,-0.671 0.19,0 0.391,0.028 0.592,0.028 v -1.679 c -0.414,-0.014 -0.832,-0.068 -1.248,-0.068 -1.947,0 -2.443,0.564 -2.443,2.458 V 0 h -1.157 v 1.477 h 1.157 V 3.585 H -1.41 V 1.477 H 0 Z"/></g>
        <g transform="translate(587.041,-15.7881)" id="g340"><path
          id="path342"
          style="fill:#000000;fill-opacity:1;fill-rule:nonzero;stroke:none"
          d="m 0,0 h -1.412 v -3.17 c 0,-0.55 0.324,-0.671 0.82,-0.671 0.19,0 0.391,0.028 0.592,0.028 v -1.679 c -0.416,-0.014 -0.834,-0.068 -1.248,-0.068 -1.949,0 -2.445,0.564 -2.445,2.458 V 0 H -4.85 v 1.477 h 1.157 v 2.108 h 2.281 V 1.477 l 1.412,0 z"/></g>
        <g transform="translate(592.8398,-17.0771)" id="g344"><path
          id="path346"
          style="fill:#000000;fill-opacity:1;fill-rule:nonzero;stroke:none"
          d="M 0,0 C -0.041,0.779 -0.592,1.423 -1.357,1.423 -2.162,1.423 -2.699,0.846 -2.834,0 Z m -2.834,-1.275 c 0.039,-0.954 0.592,-1.585 1.557,-1.585 0.552,0 1.088,0.255 1.304,0.765 H 2.16 c -0.414,-1.612 -1.906,-2.309 -3.463,-2.309 -2.269,0 -3.812,1.369 -3.812,3.706 0,2.135 1.705,3.666 3.758,3.666 2.498,0 3.746,-1.881 3.638,-4.243 z"/></g>
        <g transform="translate(598.207,-17.7227)" id="g348"><path
          id="path350"
          style="fill:#000000;fill-opacity:1;fill-rule:nonzero;stroke:none"
          d="m 0,0 c 0,-0.953 0.35,-2.013 1.396,-2.013 1.116,0 1.358,1.06 1.358,1.947 0,1.006 -0.363,1.933 -1.358,1.933 C 0.35,1.867 0,0.887 0,0 M 4.955,-3.558 H 2.781 v 0.806 H 2.754 C 2.311,-3.41 1.639,-3.759 0.832,-3.759 c -2.187,0 -3.113,1.88 -3.113,3.84 0,1.814 0.967,3.532 2.939,3.532 0.86,0 1.518,-0.322 1.987,-0.954 h 0.029 v 3.37 h 2.281 z"/></g>
        <g transform="translate(615.875,-21.2803)" id="g352"><path
          id="path354"
          style="fill:#000000;fill-opacity:1;fill-rule:nonzero;stroke:none"
          d="m 0,0 h -2.215 v 0.953 h -0.027 c -0.43,-0.711 -1.315,-1.154 -2.121,-1.154 -2.002,0 -2.578,1.154 -2.578,2.98 v 4.19 H -4.66 V 2.928 c 0,-0.927 0.404,-1.249 1.129,-1.249 0.496,0 1.248,0.322 1.248,1.557 v 3.733 l 2.283,0 z"/></g>
        <g transform="translate(619.1758,-18.9844)" id="g356"><path
          id="path358"
          style="fill:#000000;fill-opacity:1;fill-rule:nonzero;stroke:none"
          d="m 0,0 c 0,-0.349 0.146,-0.604 0.375,-0.778 0.215,-0.162 0.523,-0.243 0.846,-0.243 0.443,0 1.074,0.188 1.074,0.74 0,0.537 -0.711,0.643 -1.113,0.737 -1.438,0.363 -3.239,0.403 -3.239,2.284 0,1.679 1.813,2.135 3.184,2.135 1.531,0 3.129,-0.443 3.211,-2.257 H 2.229 c 0,0.296 -0.108,0.485 -0.295,0.605 -0.188,0.121 -0.446,0.174 -0.727,0.174 -0.375,0 -0.978,-0.04 -0.978,-0.523 0,-0.658 1.531,-0.779 2.578,-1.007 1.41,-0.282 1.771,-1.303 1.771,-1.881 0,-1.866 -1.771,-2.483 -3.344,-2.483 -1.652,0 -3.343,0.551 -3.41,2.497 z"/></g>
        <g transform="translate(629.6465,-17.0771)" id="g360"><path
          id="path362"
          style="fill:#000000;fill-opacity:1;fill-rule:nonzero;stroke:none"
          d="M 0,0 C -0.039,0.779 -0.59,1.423 -1.355,1.423 -2.162,1.423 -2.697,0.846 -2.834,0 Z m -2.834,-1.275 c 0.041,-0.954 0.592,-1.585 1.559,-1.585 0.55,0 1.086,0.255 1.302,0.765 h 2.135 c -0.416,-1.612 -1.906,-2.309 -3.465,-2.309 -2.267,0 -3.812,1.369 -3.812,3.706 0,2.135 1.705,3.666 3.76,3.666 2.498,0 3.746,-1.881 3.638,-4.243 z"/></g><path id="path364" style="fill:#000000;fill-opacity:1;fill-rule:nonzero;stroke:none" d="m 633.176,-18.782 h 2.498 v -2.498 h -2.498 z"/></g>
    </g>
    <g id="g366">
      <g clip-path="url(#clipPath372)" id="g368">
        <g transform="translate(410.4268,399.2568)" id="g374"><path id="path376" style="fill:#000000;fill-opacity:1;fill-rule:evenodd;stroke:none" d="m 0,0 c 0.103,0.714 1.11,0.508 1.824,0.605 4.045,-5.87 10.327,-9.506 15.182,-14.575 4.271,-1.801 9.232,-2.917 12.147,-6.072 C 14.154,-18.646 8.574,-7.829 0,0"/></g>
        <g transform="translate(321.7632,367.6777)" id="g378"><path id="path380" style="fill:#000000;fill-opacity:1;fill-rule:evenodd;stroke:none" d="M 0,0 H 3.036 C 3.624,-4.726 2.249,-12.519 1.818,-18.222 -1.523,-14.563 -0.912,-6.554 0,0"/></g>
        <g transform="translate(242.2041,336.0928)" id="g382"><path id="path384" style="fill:#000000;fill-opacity:1;fill-rule:evenodd;stroke:none" d="M 0,0 C 5.794,-3.795 4.097,-18.059 5.461,-24.29 0.981,-21.886 2.439,-8.289 -0.613,-2.425 -0.865,-1.158 -0.201,-0.823 0,0"/></g>
        <g transform="translate(291.9985,99.8418)" id="g386"><path id="path388" style="fill:#f9d6c0;fill-opacity:1;fill-rule:evenodd;stroke:none" d="M 0,0 C -5.283,-1.051 -10.438,-5.267 -15.184,-4.858 -13.992,1.757 -6.601,1.527 0,0"/></g>
        <g transform="translate(347.8711,70.085)" id="g390"><path
          id="path392"
          style="fill:#f9d6c0;fill-opacity:1;fill-rule:evenodd;stroke:none"
          d="m 0,0 c -14.706,-0.174 -51.185,-15.812 -63.156,-2.427 -4,4.466 -5.074,13.029 -6.074,19.434 7.668,8.518 30.552,10.918 49.19,10.93 C -9.7,27.944 3.125,25.256 6.08,19.438 9.34,13.013 5.651,3.388 0,0"/></g>
        <g transform="translate(241.5908,333.6675)" id="g394"><path
          id="path396"
          style="fill:#f9d6c0;fill-opacity:1;fill-rule:evenodd;stroke:none"
          d="M 0,0 C 3.052,-5.864 1.595,-19.461 6.074,-21.864 4.71,-15.634 6.407,-1.37 0.613,2.425 0.413,1.603 -0.251,1.267 0,0 m 81.991,15.789 c 0.43,5.703 1.805,13.496 1.217,18.221 H 80.172 C 79.26,27.457 78.649,19.447 81.991,15.789 m 114.178,24.9 c -3.054,2.816 -7.63,4.115 -11.537,6.068 2.428,-3.97 7.746,-5.013 11.537,-6.068 m 1.82,4.858 c -2.915,3.155 -7.876,4.272 -12.147,6.072 -4.855,5.069 -11.137,8.706 -15.182,14.575 -0.714,-0.097 -1.722,0.109 -1.824,-0.605 8.574,-7.828 14.154,-18.646 29.153,-20.042 M 6.679,11.541 c 3.488,3.565 1.515,8.65 1.826,12.749 0.538,7.127 2.064,17.75 5.466,22.467 5.715,7.93 21.017,12.459 32.185,9.721 10.919,-2.673 15.357,-14.909 23.08,-20.04 -0.737,4.124 -5.546,9.429 -7.89,13.97 3.651,-0.907 11.929,-2.63 15.184,0 -3.472,2.201 -9.709,1.632 -13.974,3.034 8.582,1.891 21.818,2.897 26.722,10.325 1.072,-2.909 -4.469,-4.432 -4.86,-7.896 10.294,2.354 12.725,14.918 19.439,22.471 5.425,6.11 16.943,13.456 30.974,11.537 19.077,-2.609 26.739,-17.73 41.29,-26.112 1.805,2.84 -5.176,5.316 -4.248,7.288 8.5,-4.888 17.182,-7.609 29.15,-6.076 9.781,1.257 16.792,8.771 29.761,7.9 9.225,-0.623 22.661,-4.129 27.941,-11.541 3.446,-4.846 3.875,-12.939 5.461,-20.042 1.585,-7.093 4.267,-13.984 4.862,-20.649 1.515,-16.97 -5.069,-34.488 -2.431,-51.623 3.176,0.466 2.348,4.948 2.431,8.501 6.825,-16.707 3.514,-38.454 2.434,-56.482 4.312,1.357 4.728,6.604 4.855,12.148 3.236,-6.147 1.769,-26.562 1.214,-38.261 -1.099,-22.816 -4.276,-48.638 -12.755,-66.804 -3.235,-6.94 -4.977,-14.586 -7.9,-18.83 -2.705,-3.934 -10.248,-12.159 -15.181,-12.754 -5.822,-0.698 -12.081,4.053 -16.396,5.473 -8.337,2.721 -17.284,2.332 -22.471,6.068 -5.025,3.617 -12.231,18.307 -13.362,25.509 -1.011,6.456 0.797,13.658 0.608,20.647 -0.802,28.912 -2.642,60.073 -0.608,89.883 0.746,10.928 3.856,22.05 6.683,32.191 2.895,10.389 9.602,19.814 7.893,29.152 -8.163,-7.831 -11.05,-26.201 -15.182,-40.084 -2.19,10.077 -5.228,23.685 -10.935,32.188 -1.959,-7.803 6.683,-15.059 6.687,-24.902 -3.772,10.204 -6.548,21.39 -14.575,27.333 -0.896,-3.315 2.214,-5.794 3.641,-8.507 3.704,-7.034 8.142,-16.452 9.716,-26.112 3.063,-18.765 -3.704,-35.65 -3.641,-57.695 0.017,-7.83 -1.205,-18.476 -1.22,-27.938 -0.036,-20.801 6.385,-54.104 -2.432,-68.025 -1.899,-2.998 -12.941,-11.738 -16.392,-13.361 -3.125,-1.463 -11.635,-3.106 -16.399,-3.645 -6.694,-0.745 -20.194,-1.086 -26.719,1.214 -3.298,1.166 -10.822,6.354 -13.365,9.725 -2.205,2.919 -3.26,8.725 -4.853,13.357 -6.136,17.816 -10.415,41.377 -11.541,66.2 -0.789,17.28 -1.056,37.56 1.212,52.228 3.285,21.247 10.035,39.834 12.748,57.695 -8.222,1.186 -7.068,-7.383 -8.496,-13.362 -1.916,-8.05 -7.259,-19.554 -7.898,-29.149 -1.428,9.3 -0.897,20.563 -4.853,27.331 -0.404,-7.987 2.394,-20.264 2.426,-27.938 -0.288,-2.965 0.436,-4.131 0,-5.463 1.14,3.468 -3.93,19.455 -5.461,23.078 -1.224,-6.49 1.959,-13.376 2.421,-19.433 1.836,-23.777 -2.495,-48.227 0,-74.703 1.85,-19.553 6.131,-42.722 11.545,-61.342 1.967,-6.774 5.481,-14.964 4.251,-19.438 -0.527,-1.919 -8.816,-10.525 -10.93,-12.139 -6.819,-5.2 -15.148,-8.024 -28.545,-6.687 -4.073,0.412 -8.559,2.567 -12.76,3.042 -2.638,0.293 -5.257,-0.421 -7.288,0 -13.363,2.784 -24.91,12.778 -26.719,28.543 -0.349,3.019 0.135,6.056 0,9.106 -0.603,13.576 -4.083,27.02 -4.858,40.695 -2.401,42.178 7.803,80.015 19.435,111.747 -12.157,4.845 -11.019,-16.75 -15.79,-23.072 -1.02,3.855 0.454,10.46 0.608,15.18 -3.956,-1.852 -2.577,-5.361 -3.042,-10.328 -1.614,0.73 -1.467,5.372 -3.64,3.645 0.408,-7.335 3.998,-11.41 2.429,-21.258 -1.704,-10.684 -5.529,-21.273 -6.679,-33.399 -0.62,-6.504 -0.922,-14.207 -1.223,-20.655 -0.948,-21.012 5.217,-42.693 4.868,-61.338 -0.399,-21.352 -8.926,-37.319 -34.012,-34.007 -7.902,1.039 -14.319,7.752 -19.435,13.967 -3.125,3.788 -7.685,6.056 -9.112,7.897 -6.871,8.851 -11.861,24.169 -13.971,38.256 -4.412,29.522 -3.089,66.423 0.611,97.778 0.54,4.554 3.241,10.058 0,13.973 -3.283,-6.213 -3.341,-14.203 -4.257,-21.256 -1.428,-11.144 -3.292,-20.968 -3.641,-34.615 -6.093,12.304 -3.121,34.097 -3.641,47.37 -4.88,-6.36 -4.214,-16.838 -4.856,-26.119 -0.799,-11.379 2.033,-25.645 4.248,-35.83 -10.179,14.254 -6.512,35.492 -5.462,54.661 -4.905,-7.069 -5.482,-21.479 -6.077,-34.617 -6.13,10.72 -0.787,27.324 -0.609,38.26 -3.881,1.195 -3.702,-5.388 -4.25,-8.503 -1.027,-5.836 -2.236,-11.133 -1.824,-19.435 -5.198,17.981 1.293,37.165 6.074,49.197 -6.038,-5.905 -9.51,-19.643 -10.93,-32.192 -2.65,38.687 21.836,55.499 45.549,69.841 -0.984,-3.176 -5.771,-5.401 -4.251,-9.108 6.39,1.744 9.325,12.111 15.183,16.396 0.813,-4.868 -4.359,-8.999 -4.858,-14.577 9.474,7.444 8.058,19.06 13.966,26.116 4.186,4.995 13.528,9.239 22.471,10.323 10.028,1.218 19.08,-0.529 25.503,5.469 1.89,-2.917 -2.849,-4.418 -2.419,-7.892 6.121,-0.258 4.158,7.575 7.287,10.322 -0.077,1.503 0.746,1.035 0.605,0 C 5.351,30.14 4.871,21.704 6.679,11.541"/></g>
        <g transform="translate(426.2227,380.4243)" id="g398"><path id="path400" style="fill:#000000;fill-opacity:1;fill-rule:evenodd;stroke:none" d="M 0,0 C 3.907,-1.953 8.483,-3.252 11.537,-6.068 7.746,-5.013 2.428,-3.97 0,0"/></g>
        <g transform="translate(353.9512,89.5225)" id="g402"><path
          id="path404"
          style="fill:#000000;fill-opacity:1;fill-rule:evenodd;stroke:none"
          d="m 0,0 c -2.955,5.818 -15.78,8.507 -26.12,8.499 -18.638,-0.012 -41.522,-2.411 -49.19,-10.93 0.999,-6.405 2.074,-14.967 6.074,-19.433 11.971,-13.385 48.45,2.253 63.156,2.426 C -0.429,-16.05 3.26,-6.425 0,0 m -77.136,5.461 c 4.745,-0.408 9.901,3.808 15.183,4.858 -6.601,1.528 -13.991,1.757 -15.183,-4.858 M 92.915,23.078 c -8.416,8.059 -24.038,16.983 -39.47,12.144 6.885,-2.698 15.618,-9.796 13.358,-17.609 -4.632,7.9 -12.613,11.16 -19.434,13.968 0.441,-3.561 3.348,-6.679 1.817,-10.327 1.618,-0.341 3.101,2.502 4.259,0.61 1.103,-2.157 -4.129,-4.433 -6.682,-3.038 -1.162,4.934 -0.877,10.256 -6.683,11.541 -2.178,0.481 -5.101,-0.983 -7.896,-1.218 -8.611,-0.729 -19.255,1.976 -23.685,0 2.673,-2.589 6.23,-4.302 7.285,-8.503 -4.636,5.494 -14.705,12.101 -23.684,6.077 2.998,-1.055 6.544,-1.559 8.506,-3.645 -3.958,-1.126 -11.877,5.759 -15.185,0 3.3,-0.754 7.654,-0.44 7.9,-4.252 -3.423,0.833 -7.634,0.873 -10.331,2.428 -4.684,-2.809 -9.318,-5.664 -13.967,-8.503 22.498,3.537 47.031,-11.089 34.618,-31.581 7.63,1.451 17.625,2.494 24.898,2.431 -5.43,3.276 -13.001,4.402 -18.826,7.289 12.346,1.96 19.603,-8.233 30.367,-9.72 20.314,-2.8 35.899,2.248 47.977,10.327 6.888,10.522 9.792,25.033 13.971,38.26 -6.309,2.403 -11.243,9.407 -17.617,9.721 4.446,-2.836 15.266,-10.237 8.504,-16.4 m -196.77,260.541 c 0.141,1.035 -0.682,1.503 -0.605,0 -3.129,-2.747 -1.166,-10.58 -7.287,-10.322 -0.431,3.474 4.309,4.975 2.419,7.892 -6.423,-5.998 -15.475,-4.251 -25.503,-5.469 -8.943,-1.084 -18.285,-5.328 -22.472,-10.323 -5.907,-7.056 -4.491,-18.672 -13.966,-26.116 0.5,5.578 5.672,9.709 4.859,14.577 -5.858,-4.285 -8.793,-14.652 -15.184,-16.396 -1.519,3.707 3.268,5.932 4.251,9.108 -23.712,-14.342 -48.198,-31.154 -45.549,-69.841 1.42,12.549 4.892,26.287 10.931,32.192 -4.781,-12.032 -11.272,-31.216 -6.074,-49.197 -0.413,8.302 0.797,13.599 1.824,19.435 0.547,3.115 0.369,9.698 4.25,8.503 -0.179,-10.936 -5.521,-27.54 0.608,-38.26 0.595,13.138 1.172,27.548 6.078,34.617 -1.051,-19.169 -4.717,-40.407 5.462,-54.661 -2.216,10.185 -5.047,24.451 -4.249,35.83 0.643,9.281 -0.023,19.759 4.857,26.119 0.519,-13.273 -2.453,-35.066 3.641,-47.37 0.349,13.647 2.213,23.471 3.641,34.615 0.916,7.053 0.973,15.043 4.257,21.256 3.24,-3.915 0.54,-9.419 0,-13.973 -3.7,-31.355 -5.023,-68.256 -0.611,-97.778 2.11,-14.087 7.099,-29.405 13.97,-38.256 1.428,-1.841 5.987,-4.109 9.112,-7.897 5.116,-6.215 11.533,-12.928 19.435,-13.967 25.087,-3.312 33.614,12.655 34.013,34.007 0.349,18.645 -5.816,40.327 -4.869,61.338 0.302,6.448 0.603,14.151 1.224,20.655 1.15,12.126 4.975,22.715 6.679,33.399 1.568,9.848 -2.021,13.923 -2.43,21.258 2.174,1.727 2.027,-2.915 3.641,-3.645 0.464,4.968 -0.914,8.476 3.042,10.328 -0.154,-4.72 -1.628,-11.325 -0.608,-15.18 4.77,6.322 3.632,27.917 15.79,23.072 -11.632,-31.731 -21.837,-69.569 -19.435,-111.747 0.775,-13.675 4.255,-27.119 4.858,-40.695 0.135,-3.05 -0.349,-6.087 0,-9.106 1.809,-15.765 13.355,-25.759 26.719,-28.543 2.031,-0.421 4.65,0.293 7.287,0 4.202,-0.475 8.688,-2.63 12.761,-3.042 13.397,-1.337 21.725,1.487 28.545,6.687 2.113,1.614 10.402,10.22 10.93,12.139 1.229,4.474 -2.284,12.664 -4.251,19.438 -5.414,18.62 -9.696,41.789 -11.545,61.342 -2.495,26.476 1.836,50.926 0,74.703 -0.463,6.057 -3.645,12.943 -2.422,19.433 1.531,-3.623 6.602,-19.61 5.461,-23.078 0.436,1.332 -0.287,2.498 0,5.463 -0.031,7.674 -2.829,19.951 -2.425,27.938 3.956,-6.768 3.425,-18.031 4.853,-27.331 0.638,9.595 5.982,21.099 7.898,29.149 1.428,5.979 0.273,14.548 8.495,13.362 -2.713,-17.861 -9.463,-36.448 -12.747,-57.695 -2.268,-14.668 -2.001,-34.948 -1.213,-52.228 1.126,-24.823 5.405,-48.384 11.541,-66.2 1.594,-4.632 2.649,-10.438 4.854,-13.357 2.543,-3.371 10.066,-8.559 13.365,-9.725 6.524,-2.3 20.024,-1.959 26.719,-1.214 4.763,0.539 13.274,2.182 16.399,3.645 3.45,1.623 14.492,10.363 16.392,13.361 8.816,13.921 2.395,47.224 2.431,68.025 0.016,9.462 1.238,20.108 1.221,27.938 -0.063,22.045 6.703,38.93 3.641,57.695 -1.575,9.66 -6.012,19.078 -9.716,26.112 -1.428,2.713 -4.537,5.192 -3.642,8.507 8.028,-5.943 10.804,-17.129 14.575,-27.333 -0.003,9.843 -8.645,17.099 -6.686,24.902 5.707,-8.503 8.745,-22.11 10.935,-32.188 4.131,13.883 7.019,32.253 15.181,40.084 1.709,-9.338 -4.997,-18.763 -7.892,-29.152 -2.828,-10.141 -5.937,-21.263 -6.683,-32.191 -2.034,-29.81 -0.194,-60.971 0.607,-89.883 0.19,-6.988 -1.619,-14.191 -0.607,-20.647 1.131,-7.202 8.337,-21.892 13.361,-25.509 5.188,-3.736 14.135,-3.347 22.472,-6.068 4.314,-1.42 10.573,-6.171 16.395,-5.473 4.934,0.595 12.477,8.82 15.182,12.754 2.923,4.244 4.664,11.89 7.9,18.83 8.479,18.166 11.656,43.988 12.754,66.804 0.556,11.699 2.023,32.114 -1.213,38.261 -0.127,-5.544 -0.543,-10.791 -4.855,-12.148 1.079,18.028 4.391,39.775 -2.434,56.482 -0.084,-3.553 0.745,-8.035 -2.431,-8.501 -2.638,17.135 3.945,34.653 2.431,51.623 -0.595,6.665 -3.277,13.556 -4.863,20.649 -1.586,7.103 -2.014,15.196 -5.461,20.042 -5.279,7.413 -18.716,10.918 -27.94,11.541 -12.969,0.871 -19.981,-6.643 -29.761,-7.9 -11.969,-1.533 -20.65,1.188 -29.15,6.076 -0.928,-1.971 6.052,-4.448 4.248,-7.288 -14.551,8.382 -22.213,23.503 -41.29,26.112 -14.032,1.919 -25.549,-5.427 -30.974,-11.537 -6.715,-7.553 -9.145,-20.117 -19.439,-22.471 0.39,3.464 5.931,4.987 4.86,7.896 -4.904,-7.428 -18.141,-8.433 -26.723,-10.325 4.265,-1.402 10.502,-0.833 13.974,-3.034 -3.254,-2.63 -11.533,-0.907 -15.184,0 2.345,-4.541 7.153,-9.846 7.891,-13.97 -7.724,5.131 -12.162,17.367 -23.08,20.04 -11.168,2.738 -26.471,-1.791 -32.186,-9.721 -3.401,-4.717 -4.927,-15.34 -5.465,-22.467 -0.312,-4.099 1.662,-9.184 -1.827,-12.749 -1.808,10.163 -1.328,18.599 1.827,27.933 M -88.066,17.006 c -7.429,5.081 -13.883,7.523 -23.077,6.072 -5.51,-0.873 -9.73,-5.263 -15.187,-6.682 -6.185,-1.603 -15.035,-2.424 -22.467,0 -5.408,1.764 -11.081,7.416 -15.18,10.933 -10.211,8.749 -21.94,18.815 -27.332,32.189 -6.833,16.934 -5.572,37.2 -13.361,54.047 -3.813,8.249 -10.968,15.301 -15.797,23.689 -6.434,11.212 -13.569,28.569 -12.147,47.374 1.112,14.601 4.322,29.312 10.934,39.473 8.233,12.636 22.455,21.674 35.226,29.154 4.299,2.515 9.823,4.474 13.363,7.892 4.928,4.759 6.161,10.482 10.327,13.968 1.157,0.972 3.116,2.394 4.248,3.04 12.495,7.038 27.825,3.778 39.481,9.108 10.252,4.69 14.076,13.899 21.863,18.22 8.867,4.922 19.883,5.836 31.577,4.856 8.106,-0.678 16.829,-4.519 26.114,-1.215 10.24,3.643 13.48,13.47 21.868,21.255 9.903,9.204 29.233,16.245 46.152,12.152 6.274,-1.523 12.097,-4.908 17.006,-7.896 7.067,-4.299 12.659,-10.71 22.468,-12.148 9.065,-1.327 18.532,1.63 26.73,3.645 26.132,6.432 51.363,-1.151 62.547,-19.436 11.351,-18.54 8.912,-53.77 10.939,-81.99 1.158,-16.265 5.087,-33.201 5.464,-49.192 0.389,-16.594 0.27,-33.314 -1.214,-49.796 -1.566,-17.367 -2.482,-35.092 -7.289,-49.797 -1.118,-3.439 -3.569,-6.671 -4.862,-10.336 -3.236,-9.181 -5.326,-16.966 -10.319,-24.287 -6.608,-3.094 -14.158,-9.011 -21.868,-12.149 -2.673,-1.089 -6.1,-0.962 -8.499,-2.426 C 108.207,19.738 104.06,-4.676 94.743,-14.579 88.552,-21.15 72.839,-27.821 60.727,-29.154 c -12.374,-1.365 -24.628,2.229 -37.653,2.427 -8.654,0.135 -18.117,-1.046 -27.326,-2.427 -17.216,-2.585 -35.882,-9.367 -52.836,-8.503 -25.482,1.301 -34.046,26.247 -30.978,54.663"/></g>
        <g transform="translate(438.3623,129)" id="g406"><path
          id="path408"
          style="fill:#f9d6c0;fill-opacity:1;fill-rule:evenodd;stroke:none"
          d="M 0,0 C 6.374,-0.313 11.308,-7.317 17.617,-9.721 13.438,-22.947 10.534,-37.459 3.646,-47.98 c -12.078,-8.08 -27.664,-13.127 -47.977,-10.328 -10.764,1.488 -18.022,11.68 -30.367,9.72 5.825,-2.887 13.396,-4.013 18.826,-7.289 -7.274,0.064 -17.268,-0.979 -24.899,-2.431 12.414,20.493 -12.12,35.119 -34.617,31.581 4.649,2.839 9.283,5.695 13.967,8.503 2.696,-1.554 6.908,-1.594 10.331,-2.427 -0.246,3.811 -4.6,3.498 -7.9,4.252 3.307,5.758 11.227,-1.126 15.185,0 -1.963,2.086 -5.508,2.589 -8.507,3.644 8.98,6.025 19.049,-0.583 23.685,-6.076 -1.055,4.2 -4.612,5.913 -7.285,8.503 4.43,1.975 15.074,-0.73 23.684,0 2.796,0.234 5.719,1.698 7.897,1.218 5.806,-1.286 5.52,-6.608 6.683,-11.541 2.553,-1.396 7.785,0.88 6.682,3.038 -1.158,1.891 -2.641,-0.951 -4.26,-0.611 1.532,3.649 -1.376,6.766 -1.816,10.328 6.821,-2.808 14.802,-6.069 19.434,-13.968 2.26,7.812 -6.473,14.911 -13.358,17.608 C -15.534,0.583 0.088,-8.341 8.504,-16.399 15.266,-10.236 4.446,-2.836 0,0"/></g>
      </g>
    </g>
  </g>
</svg>
